<?xml version="1.0" encoding="utf-8"?>
<!-- Generator: Adobe Illustrator 19.1.0, SVG Export Plug-In . SVG Version: 6.00 Build 0)  -->
<svg version="1.1" xmlns="http://www.w3.org/2000/svg" xmlns:xlink="http://www.w3.org/1999/xlink" x="0px" y="0px"
	 viewBox="0 0 185 14.6" style="enable-background:new 0 0 185 14.6;" xml:space="preserve">
<defs>
	<style type="text/css">
		<![CDATA[
			.st0{fill:#FFFFFF;}
			.st1{fill:#00C2F3;}
		]]>
	</style>
</defs>
<g id="TYPEFACE">
	<g>
		<g>
			<path class="st0" d="M11.4,9.2c0-2.9,2.1-5.3,5.6-5.3c3.5,0,5.6,2.4,5.6,5.3c0,2.9-2.1,5.3-5.6,5.3C13.5,14.5,11.4,12.1,11.4,9.2
				z M19.7,9.2c0-1.6-1-2.9-2.7-2.9s-2.7,1.4-2.7,2.9c0,1.6,1,3,2.7,3S19.7,10.8,19.7,9.2z"/>
		</g>
		<g>
			<path class="st0" d="M44.8,8.2c0-1.4-0.8-1.9-1.9-1.9c-1.1,0-1.9,0.6-2.4,1.2v7.1h-2.8V4.2h2.8v1.3c0.7-0.8,2-1.6,3.7-1.6
				c2.3,0,3.4,1.3,3.4,3.2v7.4h-2.8V8.2z"/>
		</g>
		<g>
			<path class="st0" d="M56.9,13.2c-0.7,0.8-2,1.3-3.3,1.3c-1.7,0-3.7-1.1-3.7-3.4c0-2.4,2-3.2,3.7-3.2c1.4,0,2.6,0.4,3.3,1.2V7.8
				c0-1-0.9-1.7-2.3-1.7c-1.1,0-2.2,0.4-3.1,1.2l-1-1.8c1.3-1.1,2.9-1.6,4.6-1.6c2.4,0,4.6,0.9,4.6,3.8v6.8h-2.8V13.2z M56.9,10.6
				c-0.5-0.6-1.3-0.9-2.2-0.9c-1.1,0-2,0.5-2,1.5c0,0.9,0.9,1.5,2,1.5c0.9,0,1.8-0.3,2.2-0.9V10.6z"/>
		</g>
		<g>
			<path class="st0" d="M89.5,13.2c-0.7,0.8-2,1.3-3.3,1.3c-1.7,0-3.7-1.1-3.7-3.4c0-2.4,2-3.2,3.7-3.2c1.4,0,2.6,0.4,3.3,1.2V7.8
				c0-1-0.9-1.7-2.3-1.7c-1.1,0-2.2,0.4-3.1,1.2l-1-1.8c1.3-1.1,2.9-1.6,4.6-1.6c2.4,0,4.6,0.9,4.6,3.8v6.8h-2.8V13.2z M89.5,10.6
				C89,10,88.1,9.7,87.2,9.7c-1.1,0-2,0.5-2,1.5c0,0.9,0.9,1.5,2,1.5c0.9,0,1.8-0.3,2.2-0.9V10.6z"/>
		</g>
		<g>
			<path class="st0" d="M102.3,8.2c0-1.4-0.8-1.9-1.9-1.9c-1.1,0-1.9,0.6-2.4,1.2v7.1h-2.8V4.2H98v1.3c0.7-0.8,2-1.6,3.7-1.6
				c2.3,0,3.4,1.3,3.4,3.2v7.4h-2.8V8.2z"/>
		</g>
		<g>
			<path class="st0" d="M112.4,0h9.1v2.7h-6.4v3h6.3v2.7h-6.3v3.2h6.4l0,2.9h-9.1L112.4,0z"/>
		</g>
		<g>
			<path class="st0" d="M124,4.4h2.8v1.4c0.7-0.9,2.1-1.6,3.4-1.6v2.6c-0.2,0-0.5-0.1-0.8-0.1c-0.9,0-2.1,0.5-2.6,1.2v6.7H124V4.4z"
				/>
		</g>
		<g>
			<path class="st0" d="M131.8,1.6c0-0.9,0.8-1.6,1.7-1.6c0.9,0,1.7,0.7,1.7,1.6s-0.7,1.6-1.7,1.6C132.5,3.2,131.8,2.5,131.8,1.6z"
				/>
		</g>
		<g>
			<rect x="132.1" y="4.4" class="st0" width="2.8" height="10.1"/>
		</g>
		<g>
			<path class="st0" d="M142.7,3.9c2.2,0,3.5,0.9,4.2,1.8l-1.8,1.6c-0.5-0.7-1.3-1.1-2.2-1.1c-1.7,0-2.9,1.2-2.9,2.9s1.2,3,2.9,3
				c1,0,1.7-0.4,2.2-1.1l1.8,1.6c-0.7,0.9-2,1.8-4.2,1.8c-3.3,0-5.6-2.2-5.6-5.3C137.1,6.1,139.5,3.9,142.7,3.9z"/>
		</g>
		<g>
			<path class="st0" d="M162.2,8.3h-6.3l0,6.2h-2.8l0-14.5h2.8v5.6h6.3V0h2.9l0,14.5h-2.9L162.2,8.3z"/>
		</g>
		<g>
			<path class="st0" d="M168.8,1.6c0-0.9,0.8-1.6,1.7-1.6c0.9,0,1.7,0.7,1.7,1.6s-0.7,1.6-1.7,1.6C169.5,3.2,168.8,2.5,168.8,1.6z"
				/>
		</g>
		<g>
			<polygon class="st0" points="169.1,4.2 171.8,4.2 171.8,14.5 169,14.5"/>
		</g>
		<g>
			<rect x="5.9" class="st1" width="3.1" height="1.6"/>
		</g>
		<g>
			<path class="st0" d="M5.9,9.7c0,1.4-0.9,2.2-2.3,2.2c-1,0-1.7-0.5-2.3-1L0,13.2c1,1,2.4,1.4,3.9,1.4c3,0,5.1-1.5,5.1-4.9V2.2H5.9
				V9.7z"/>
		</g>
		<g>
			<rect x="24.8" class="st1" width="2.8" height="1.6"/>
		</g>
		<g>
			<path class="st0" d="M24.8,2.2v12.4h2.8V7.5c0.5-0.6,1.3-1.2,2.4-1.2c1.2,0,2,0.4,2,1.8v6.4h2.8V7.1c0-2-1.1-3.2-3.4-3.2
				c-1.7,0-3,0.8-3.7,1.6V2.2H24.8z"/>
		</g>
		<g>
			<rect x="70.3" class="st1" width="2.8" height="1.6"/>
		</g>
		<g>
			<path class="st0" d="M76.7,3.9c-1.7,0-3,0.8-3.7,1.6V2.2h-2.8v12.4H73V7.5c0.5-0.6,1.3-1.2,2.4-1.2c1.2,0,2,0.4,2,1.8v6.4h2.8
				V7.1C80.2,5.1,79.1,3.9,76.7,3.9z"/>
		</g>
		<g>
			<path class="st0" d="M67.9,11.9c-0.2,0.1-0.5,0.3-1,0.3c-0.6,0-1-0.5-1-1.1V6.5h2.1V4.2H66v-2h-2.8v2h-1.7v2.3h1.7v5.3
				c0,1.8,1,2.8,3,2.8c1.2,0,1.9-0.3,2.3-0.7L67.9,11.9z"/>
		</g>
		<g>
			<rect x="63.2" class="st1" width="2.8" height="1.6"/>
		</g>
		<g>
			<rect x="176" y="0" class="st1" width="2.8" height="1.6"/>
		</g>
		<g>
			<rect x="176" y="2.1" class="st0" width="2.8" height="12.4"/>
		</g>
		<g>
			<rect x="182.3" y="2.1" class="st0" width="2.8" height="12.4"/>
		</g>
		<g>
			<rect x="182.3" class="st1" width="2.8" height="1.6"/>
		</g>
	</g>
</g>
</svg>
