<?xml version="1.0" standalone="no"?>
<!DOCTYPE svg PUBLIC "-//W3C//DTD SVG 20010904//EN"
 "http://www.w3.org/TR/2001/REC-SVG-20010904/DTD/svg10.dtd">
<svg version="1.0" xmlns="http://www.w3.org/2000/svg"
 width="1024.000000pt" height="1024.000000pt" viewBox="0 0 1024.000000 1024.000000"
 preserveAspectRatio="xMidYMid meet">
<metadata>
Created by potrace 1.11, written by Peter Selinger 2001-2013
</metadata>
<g transform="translate(0.000000,1024.000000) scale(0.100000,-0.100000)"
fill="#000000" stroke="none">
<path d="M4095 9393 c-49 -13 -97 -26 -105 -28 -86 -19 -350 -111 -505 -176
l-77 -33 6 -255 c4 -141 9 -305 11 -366 2 -60 6 -220 10 -353 3 -134 7 -248 8
-254 1 -6 -27 -31 -63 -56 -94 -65 -260 -191 -295 -224 -16 -15 -35 -28 -41
-28 -9 0 -204 70 -649 232 -60 22 -134 48 -162 59 -136 49 -164 59 -243 89
l-85 32 -43 -49 c-107 -120 -335 -441 -417 -589 l-29 -51 60 -79 c362 -476
674 -896 674 -908 0 -8 -13 -50 -29 -93 -38 -100 -85 -252 -101 -324 l-13 -56
-126 -37 c-69 -21 -144 -44 -166 -51 -22 -8 -177 -55 -345 -105 -168 -50 -316
-95 -330 -100 -14 -5 -64 -20 -112 -35 -66 -19 -88 -30 -89 -43 0 -9 -3 -62
-7 -117 -15 -230 -4 -687 17 -708 6 -6 83 -32 173 -59 90 -27 192 -57 228 -68
36 -11 220 -67 410 -123 l345 -104 26 -95 c33 -121 99 -320 110 -334 28 -35
10 -61 -354 -546 l-365 -487 19 -36 c50 -92 234 -367 305 -454 7 -9 47 -57 88
-108 l75 -91 128 48 c70 26 327 120 571 209 476 175 443 167 497 117 31 -29
244 -188 297 -221 l47 -29 -4 -156 c-3 -85 -7 -238 -9 -340 -3 -102 -8 -288
-12 -415 -3 -126 -7 -252 -8 -278 0 -27 3 -52 9 -57 32 -26 517 -199 604 -215
14 -3 59 -14 99 -24 l73 -19 27 38 c15 21 33 46 39 56 281 423 494 742 502
751 6 7 11 14 11 17 0 2 24 39 54 82 l53 78 248 0 247 1 160 -240 c89 -132
175 -260 192 -285 17 -25 36 -53 41 -62 6 -9 72 -109 148 -222 88 -130 145
-206 155 -206 60 0 404 107 620 193 l154 60 -7 276 c-4 152 -8 319 -10 371 -2
52 -6 203 -10 334 -3 132 -8 243 -11 248 -3 4 16 22 42 40 88 61 319 236 337
255 20 23 -39 43 682 -221 l480 -175 38 42 c87 98 327 424 327 446 0 5 4 11 8
13 5 1 32 43 62 92 47 78 52 91 40 109 -10 17 -611 818 -674 899 -56 71 -55
70 -45 90 16 30 96 271 115 347 2 9 9 37 15 62 l12 47 106 32 c58 17 117 36
131 40 35 12 252 78 335 102 39 11 77 23 85 26 8 3 17 6 20 7 16 3 206 61 370
111 14 5 27 9 30 9 3 1 24 7 48 15 37 12 42 17 43 44 0 17 3 63 7 101 13 153
3 697 -13 713 -2 2 -115 37 -252 78 -136 41 -284 86 -328 99 -44 14 -156 47
-250 75 -364 109 -332 96 -340 132 -4 18 -9 35 -10 38 -1 3 -7 25 -14 50 -22
78 -69 223 -95 292 l-25 67 85 113 c46 62 90 120 97 128 6 8 64 85 127 170 63
85 120 162 127 170 6 8 77 102 157 208 l145 194 -19 33 c-36 65 -58 99 -143
229 -11 17 -83 119 -124 175 -42 57 -172 217 -189 232 -18 16 -26 14 -134 -26
-63 -24 -281 -104 -485 -179 -203 -74 -407 -148 -452 -165 l-81 -30 -114 89
c-62 50 -151 116 -198 148 l-85 59 1 104 c1 96 6 325 20 849 3 113 6 224 7
248 l2 42 -75 32 c-126 52 -299 114 -425 151 -117 35 -288 78 -290 74 -1 -1
-68 -100 -148 -221 -81 -120 -147 -222 -147 -227 0 -5 -4 -9 -10 -9 -5 0 -10
-6 -10 -14 0 -8 -3 -16 -7 -18 -8 -3 -224 -324 -232 -343 -2 -5 -7 -12 -10
-15 -3 -3 -32 -44 -65 -92 l-58 -88 -47 5 c-61 7 -288 7 -372 0 l-66 -5 -139
208 c-76 114 -142 212 -147 217 -4 6 -70 105 -147 220 -76 116 -143 215 -147
220 -4 6 -30 42 -56 82 -26 40 -51 74 -55 76 -4 2 -47 -7 -97 -20z m1230
-2807 c29 -6 46 -9 110 -22 233 -46 542 -215 704 -384 242 -255 372 -511 426
-840 34 -214 17 -450 -48 -665 -105 -342 -294 -597 -613 -823 -98 -69 -310
-158 -462 -192 -175 -40 -393 -46 -548 -16 -12 2 -38 7 -57 10 -151 24 -404
140 -558 255 -296 222 -512 566 -573 911 -3 19 -8 45 -11 58 -20 107 -21 353
0 462 29 154 46 217 87 320 138 350 389 625 726 794 124 62 312 118 447 133
28 3 51 7 53 8 6 5 286 -3 317 -9z"/>
</g>
</svg>
